<?xml version="1.0" encoding="UTF-8"?>
<svg viewBox="0 0 134.48 153.4" xmlns="http://www.w3.org/2000/svg">
<defs>
<style>.a,.e{clip-path:url(#a);}.b{fill:#0a3966;}.c{fill:#00a651;}.d,.i{fill:#fff;}.e{opacity:0.43;}.f,.h{fill:#414aa9;}.f,.g{opacity:0.15;}.i{font-size:18px;font-family:Poppins-Bold, Poppins;font-weight:700;}</style>
<clipPath id="a">
<path transform="translate(-80.97 -41.79)" d="m88.945 41.79h118.53a7.976 7.976 0 0 1 7.975 7.975v137.46a7.976 7.976 0 0 1-7.975 7.975h-118.53a7.976 7.976 0 0 1-7.975-7.975v-137.46a7.973 7.973 0 0 1 7.975-7.971z"/>
</clipPath>
</defs>
<g transform="translate(-160.34 -201.31)">
<g transform="translate(160.34 201.31)">
<g transform="translate(0)">
<g class="a">
<rect class="b" transform="translate(-2.747 -2.3)" width="141.97" height="157.84"/>
</g>
</g>
<g transform="translate(0)">
<g class="a">
<path class="c" transform="translate(-64.037 -17.136)" d="M139.259,98.435h-1.5c-.082-.1-.2-.074-.3-.078a3.406,3.406,0,0,1-1.857-1.095,2.887,2.887,0,0,0-2.034-.791,2.314,2.314,0,0,0-1.218.4c-.385.271-.759.562-1.119.869a2.191,2.191,0,0,1-1.247.619c-.127.012-.262-.033-.365.078h-1.423a.541.541,0,0,0-.373-.078,2.086,2.086,0,0,1-1.214-.6,11.976,11.976,0,0,0-1.013-.808,2.542,2.542,0,0,0-3.317.258c-.291.246-.586.48-.886.718a1.755,1.755,0,0,1-1.033.431c-.1.008-.221-.016-.3.078h-1.661a4.64,4.64,0,0,1-2.173-1.337,2.561,2.561,0,0,0-3.481.074,12.939,12.939,0,0,1-1.152.9,1.624,1.624,0,0,1-.808.283c-.127.012-.262-.033-.365.078H109.15c-.074-.09-.185-.074-.283-.078h-.217a2.024,2.024,0,0,1-1.189-.566c-.3-.254-.619-.488-.927-.738a2.5,2.5,0,0,0-3.227-.012c-.435.34-.832.722-1.3,1.021a1.671,1.671,0,0,1-.8.3h-.217c-.1,0-.209-.016-.291.078H99.51c-.1-.111-.238-.066-.361-.078a1.841,1.841,0,0,1-1.234-.537c-.353-.275-.689-.57-1.054-.828a2.475,2.475,0,0,0-3.284.16c-.32.275-.66.517-.98.8a3.331,3.331,0,0,1-1.144.488H89.64a5.291,5.291,0,0,1-2.3-1.411,2.51,2.51,0,0,0-3.284.074c-.357.287-.709.578-1.074.853a1.782,1.782,0,0,1-.968.4h-.217c-.1,0-.209-.016-.291.078H80.316c-.1-.111-.238-.066-.365-.078a1.583,1.583,0,0,1-.918-.316,11.527,11.527,0,0,1-1.148-.9,2.512,2.512,0,0,0-3.28-.164c-.39.291-.754.615-1.132.91a1.851,1.851,0,0,1-1.066.455c-.107.008-.221-.016-.3.078H70.446A5.44,5.44,0,0,1,68.1,96.971a2.517,2.517,0,0,0-3.26.127c-.361.312-.726.6-1.111.877a1.772,1.772,0,0,1-.9.357c-.127.012-.262-.033-.365.078H61.044a.541.541,0,0,0-.373-.078,2.185,2.185,0,0,1-1.242-.623,10.2,10.2,0,0,0-1.05-.824,2.481,2.481,0,0,0-3,.111c-.439.349-.853.738-1.324,1.042a1.716,1.716,0,0,1-.8.3h-.217c-.1,0-.209-.016-.291.078-.406.086-.484-.066-.484-.472q.018-30.975,0-61.949C52.26,35.735,52.3,0,52.613,0q78.66.012,157.329,0c.316,0,.353,35.735.353,36.018q-.012,30.144-.008,60.288c-.049.041-.09.107-.152.123a3.746,3.746,0,0,0-1.845,1.05,3.7,3.7,0,0,1-1.8.964h-1.341c-.074-.09-.185-.074-.287-.078h-.221a2.274,2.274,0,0,1-1.2-.554c-.41-.3-.791-.648-1.2-.959a2.649,2.649,0,0,0-2.981.156,11.293,11.293,0,0,1-1.2.964,1.811,1.811,0,0,1-1.009.394c-.127.012-.262-.033-.369.078h-1.1c-.074-.09-.185-.074-.287-.078h-.221a3.317,3.317,0,0,1-1.866-1.078,2.963,2.963,0,0,0-2.017-.824,2.616,2.616,0,0,0-1.734.722,13.466,13.466,0,0,1-1.087.841,1.77,1.77,0,0,1-.906.344h-.226c-.123.008-.254-.033-.357.078H185.86c-.1-.111-.238-.066-.365-.078a2.114,2.114,0,0,1-1.333-.623c-.324-.291-.685-.533-1.021-.808a2.588,2.588,0,0,0-3.174.156,11.991,11.991,0,0,1-1.107.882,1.794,1.794,0,0,1-1.013.394c-.127.012-.262-.033-.369.078h-1.263c-.1-.111-.238-.066-.365-.078a2.794,2.794,0,0,1-1.5-.8,4.848,4.848,0,0,0-1.279-.91,2.587,2.587,0,0,0-2.76.484c-.312.267-.631.513-.951.771a1.918,1.918,0,0,1-1.07.455c-.127.012-.262-.033-.369.078h-1.5a5.323,5.323,0,0,1-2.374-1.46,2.577,2.577,0,0,0-3.207.066c-.332.279-.681.533-1.013.816a1.875,1.875,0,0,1-1.3.5c-.168.021-.349-.053-.5.078h-.791c-.1-.107-.23-.07-.353-.078h-.221a2.195,2.195,0,0,1-1.2-.549c-.357-.271-.718-.537-1.046-.836a2.586,2.586,0,0,0-3.174.07c-.369.32-.759.611-1.14.906a1.782,1.782,0,0,1-.968.4h-.209c-.1,0-.213-.016-.287.078h-1.263a.541.541,0,0,0-.373-.078,1.875,1.875,0,0,1-1.062-.472c-.34-.287-.705-.541-1.046-.832a2.485,2.485,0,0,0-3.1-.1c-.41.3-.791.644-1.2.959a1.851,1.851,0,0,1-1.066.455A.264.264,0,0,0,139.259,98.435Z"/>
</g>
</g>
<g transform="translate(0)">
<g class="a">
<path class="d" transform="translate(-265.54 -103.65)" d="m398.5 156.03a4.711 4.711 0 1 1 0.734-0.057 4.052 4.052 0 0 1-0.734 0.057zm0.021-8.734a4.065 4.065 0 0 0-3.256 1.648 4.018 4.018 0 1 0 5.618-0.877 4.035 4.035 0 0 0-2.364-0.767z"/>
</g>
<g class="a">
<path class="d" transform="translate(-140.02 -38.032)" d="m185.22 35.924a2.615 2.615 0 1 1-3.653 0.57 2.618 2.618 0 0 1 3.653-0.57z"/>
</g>
</g>
<g transform="translate(0)">
<g class="e">
<circle class="f" transform="translate(-33.201 80.085)" cx="26.796" cy="26.796" r="26.796"/>
<g class="g" transform="translate(-14.88 -10.787)">
<path class="h" transform="translate(-59.615 -26.307)" d="m67.924 102.86c4.748-6.479 14.852-5.572 22.044-1.993s13.646 9.193 21.593 10.358c9.283 1.365 18.723-4.051 23.807-11.936s6.286-17.775 5.183-27.091-4.351-18.227-7.619-27.023c-1.832-4.928-3.832-10.074-7.832-13.482-4.547-3.867-10.858-4.785-16.812-5.146a132.49 132.49 0 0 0-35.838 2.727c-2.678 0.578-5.441 1.288-7.549 3.047-3.629 3.034-4.326 8.262-4.646 12.982a280.24 280.24 0 0 0 0.562 44.793"/>
</g>
<g class="g" transform="translate(40.439 61.855)">
<path class="h" transform="translate(-139.03 -130.59)" d="M141.087,232.893c-5.281-15.024-.316-34.251,13.855-41.513,12.043-6.171,28.317-3.243,38.04-12.658,4.941-4.789,6.958-11.744,9.14-18.267,2.706-8.074,6.11-16.2,12.145-22.216s15.266-9.48,23.294-6.639c6.77,2.391,11.5,8.8,13.7,15.635s2.268,14.151,2.309,21.33c.074,12.9.148,25.874-2.042,38.585-1.124,6.536-2.969,13.216-7.307,18.23-3.645,4.215-8.75,6.9-13.954,8.906-23.848,9.226-50.46,6.032-75.809,2.7"/>
</g>
<circle class="f" transform="translate(76.85 30.515)" cx="7.11" cy="7.11" r="7.11"/>
<circle class="f" transform="translate(74.382 20.404)" cx="2.645" cy="2.645" r="2.645"/>
<circle class="f" transform="translate(3.022 145.82)" cx="11.485" cy="11.485" r="11.485"/>
<circle class="f" transform="translate(102.54 .447)" cx="21.966" cy="21.966" r="21.966"/>
</g>
</g>
</g>
<text class="i" transform="translate(170.18 253.88)"><tspan x="0" y="0">Innovative</tspan><tspan x="0" y="18">Teaching</tspan></text>
<g transform="translate(165.31 227.88)">
<path class="d" transform="translate(-115.36 -99.488)" d="M137.123,106.984a2.811,2.811,0,1,1,.439-.033A3.112,3.112,0,0,1,137.123,106.984Zm.008-5.228a2.3,2.3,0,0,0-.377.029,2.408,2.408,0,1,0,1.788.435h0a2.382,2.382,0,0,0-1.411-.463Z"/>
<path class="d" transform="translate(-185.01 -96.81)" d="m256 101.48-3.645-3.047 4.748-1.628z"/>
<path class="d" transform="translate(-236.84 -216.75)" d="M345.5,302.392c-.636-.627-1.267-1.263-1.9-1.9a1.489,1.489,0,0,0-.513-.373h-.1a1.451,1.451,0,0,0-.513.373c-.627.636-1.263,1.267-1.9,1.9a1.489,1.489,0,0,0-.373.513v.1a1.451,1.451,0,0,0,.373.513c.636.627,1.267,1.263,1.9,1.9a1.488,1.488,0,0,0,.513.373h.1a1.451,1.451,0,0,0,.513-.373c.627-.636,1.263-1.267,1.9-1.9a1.488,1.488,0,0,0,.373-.513v-.1A1.528,1.528,0,0,0,345.5,302.392Zm-.73.705c-.541.533-1.074,1.062-1.6,1.6-.1.1-.152.123-.258.008-.537-.549-1.074-1.091-1.62-1.624-.086-.086-.111-.139-.008-.238.554-.541,1.095-1.095,1.644-1.636.033-.033.07-.066.143-.135.029.049.057.1.09.148.541.545,1.074,1.087,1.624,1.62.111.107.082.156-.012.25Z"/>
<path class="d" transform="translate(-88.106 -171.62)" d="M92,223.622c-1,.025-2.005.045-3.01.057a1.639,1.639,0,0,0-.7.127c-.025.029-.053.053-.078.082a1.657,1.657,0,0,0-.1.705c.025,1,.045,2.005.057,3.01a1.639,1.639,0,0,0,.127.7c.029.025.053.053.082.078a1.657,1.657,0,0,0,.705.1c1-.025,2.005-.045,3.01-.057a1.639,1.639,0,0,0,.7-.127c.025-.029.053-.053.078-.082a1.657,1.657,0,0,0,.1-.705c-.025-1-.045-2.005-.057-3.01a1.639,1.639,0,0,0-.127-.7c-.029-.025-.053-.053-.082-.078A1.656,1.656,0,0,0,92,223.622Zm0,1.132c.008.845.025,1.693.049,2.538,0,.156-.021.213-.193.213-.857,0-1.71.025-2.567.045-.144,0-.2-.012-.2-.18-.008-.865-.029-1.734-.045-2.6v-.221a.732.732,0,0,0,.189.037c.857-.012,1.71-.025,2.567-.049C91.979,224.54,92,224.6,92,224.754Z"/>
</g>
</g>
</svg>
