<svg xmlns="http://www.w3.org/2000/svg" width="67" height="36.558" viewBox="0 0 67 36.558"><defs><style>.a{fill:#fff;}</style></defs><g transform="translate(0 0.014)"><path class="a" d="M103.716,8.582c-1.088-.018-1.175-.165-.78-1.212.408-1.092.835-2.175,1.262-3.281-1.308,0-2.5-.06-3.676.018-1.147.073-1.175.115-.84-1.028.3-1.01.647-2,1-3.07C97.318-.285,86.712,3.121,84.711,5.071,89.043,3.9,93.27,2.29,97.956,1.9a136.423,136.423,0,0,0-3.947,13.63h0l-.1.454c-.028.133-.06.262-.083.395h0l-.344,1.638-.716,3.1h0c-.014.06-.028.115-.037.174-.408,1.937-.913,3.855-1.285,5.8-.326,1.7-.358,1.758-2.12,1.9a30.466,30.466,0,0,0-11.115,2.868c-1.023.5-1.96,1.184-2.937,1.776,7.733-.67,15.049.789,22.378,2.905.073-.427.119-.867.234-1.29.95-3.492,1.923-6.98,2.855-10.482,0,0,2.735-7.517,3.566-9.518.055-.119.11-.248.165-.372.464-1.092.945-2.18,1.487-3.235.519-1,1.124-1.955,1.767-3.066C106.286,8.586,105,8.6,103.716,8.582ZM80.186,32.033a.086.086,0,0,0,.037-.009C80.214,32.056,80.2,32.112,80.186,32.033Zm.069.018a.065.065,0,0,0-.009-.028c1.6-.317,2.4-.968,4.86-1.276,2.171-.216,4.355-.248,6.535-.326.523-.018.8-.124.927-.7.33-1.533.743-3.052,1.115-4.576.312-1.262.615-2.52.936-3.846h0l1.051-3.91h0l.119-.445h0l.294-1.1v-.014c.041-.1.073-.225.115-.367.532-1.946,1.046-3.9,1.583-5.847.441-1.588.9-3.167,1.377-4.833.826.271,1.51.491,2.258.734-.688,1.753-1.391,3.332-1.932,4.966-.854,2.584-1.606,5.2-2.382,7.816-.766,2.584-1.533,5.168-2.258,7.765-.45,1.606-.8,3.24-1.239,4.846a.886.886,0,0,1-.61.537c-.959.028-1.923-.083-2.882-.055q-3.649.1-7.292.3c-.849.05-1.7.234-2.565.358Zm22.327-17.421-.661,1.606-2,5.879a2.032,2.032,0,0,0-.124.289c-1.042,3.534-2.1,7.063-3.1,10.606-.454,1.6-.427,1.446-2.033,1.175a2.209,2.209,0,0,1-.312-.06c-2.263-.643-4.47-1.1-6.737-1.739,2.464.381,4.892.762,7.375,1.143a5.972,5.972,0,0,0,.211-.569q1.473-5.012,2.942-10.023a17.1,17.1,0,0,0,.491-1.863l.8-3.02h0c.826-2.6,1.611-5.223,2.446-7.82.1-.307.427-.739.684-.762,1.427-.138,1.928.615,1.381,1.882-.454,1.065-.9,2.148-1.363,3.277Z" transform="translate(-40.731 -0.005)"/><path class="a" d="M0,8.592c.643,1.115,1.248,2.065,1.767,3.066.542,1.056,1.023,2.143,1.487,3.235q.083.193.165.372c.835,2,3.571,9.518,3.571,9.518.932,3.5,1.9,6.985,2.855,10.482.115.422.156.863.234,1.29,7.325-2.12,14.645-3.58,22.373-2.905-.978-.6-1.918-1.271-2.937-1.776A30.443,30.443,0,0,0,18.4,29.005c-1.758-.142-1.79-.2-2.116-1.9-.372-1.946-.881-3.864-1.285-5.8-.014-.06-.023-.115-.037-.174h0l-.716-3.1L13.9,16.394h0c-.028-.133-.055-.262-.083-.395l-.1-.454h0A136.423,136.423,0,0,0,9.775,1.914c4.681.39,8.913,2,13.245,3.171-2-1.95-12.6-5.36-15.962-5.067.349,1.074.7,2.061,1,3.07.335,1.138.307,1.1-.84,1.023-1.179-.073-2.368-.018-3.676-.018.427,1.1.854,2.189,1.262,3.281.395,1.046.307,1.193-.78,1.212C2.735,8.61,1.45,8.592,0,8.592ZM27.509,32.03a.108.108,0,0,1,.037.009C27.536,32.117,27.522,32.062,27.509,32.03ZM24.9,31.7q-3.642-.2-7.292-.3c-.959-.028-1.923.087-2.882.055a.886.886,0,0,1-.61-.537c-.441-1.606-.789-3.24-1.239-4.846-.725-2.6-1.492-5.186-2.258-7.765-.776-2.611-1.533-5.232-2.382-7.816C7.7,8.854,6.994,7.275,6.306,5.522c.743-.243,1.427-.464,2.258-.734C9.036,6.449,9.5,8.032,9.941,9.62c.537,1.946,1.051,3.9,1.583,5.847a3.4,3.4,0,0,0,.115.367v.014l.294,1.1h0l.119.445h0L13.1,21.3h0c.321,1.326.629,2.588.936,3.846.372,1.524.789,3.043,1.115,4.576.124.578.4.684.927.7,2.18.073,4.369.106,6.535.326,2.46.307,3.263.955,4.86,1.276a.065.065,0,0,0-.009.028C26.618,31.933,25.765,31.75,24.9,31.7ZM5.154,14.632c-.464-1.124-.909-2.207-1.368-3.281-.551-1.267-.046-2.019,1.381-1.882.257.023.587.454.684.762.835,2.6,1.625,5.218,2.446,7.82h0l.8,3.02a17.675,17.675,0,0,0,.491,1.863q1.466,5.012,2.942,10.023c.05.179.133.353.216.569,2.483-.381,4.911-.762,7.375-1.143-2.267.643-4.47,1.1-6.737,1.739-.092.023-.22.041-.312.06-1.606.275-1.579.431-2.033-1.175-1-3.543-2.061-7.072-3.1-10.606a1.614,1.614,0,0,0-.124-.289l-2-5.879-.665-1.6Z" transform="translate(0 -0.01)"/><path class="a" d="M66.067,24.812a.751.751,0,0,1-.739.578.8.8,0,0,1,0-1.6.748.748,0,0,1,.739.578h4.475c.018-.041,0-.06,0-.1a6.747,6.747,0,0,0-.041-.679H67.645L66.6,22.572H64.387a.783.783,0,0,1-1.519-.275.787.787,0,0,1,1.556-.161H66.8l1.019,1.037h2.616a.481.481,0,0,0-.023-.179c-.037-.239-.078-.482-.119-.679a1.881,1.881,0,0,0-.1-.358H66.856l-1.2-1.2a.628.628,0,0,1-.34.078.8.8,0,0,1-.8-.78.814.814,0,0,1,.8-.8.8.8,0,0,1,.8.8.9.9,0,0,1-.119.418l1.037,1.06h3.052a12,12,0,0,0-.418-1.179v-.023H68.412a.564.564,0,0,1-1.1-.179.578.578,0,0,1,.578-.56.532.532,0,0,1,.519.381H69.49c-.06-.1-.1-.22-.161-.317a9.8,9.8,0,0,0-1.276-1.9c-.179-.2-.358-.418-.537-.6a10.5,10.5,0,0,0-16.861,2.813h1.1a.527.527,0,0,1,.519-.376.562.562,0,0,1,.56.56.551.551,0,0,1-.532.56h-.023a.56.56,0,0,1-.519-.372H50.472a7.918,7.918,0,0,0-.441,1.193h3.075l1.06-1.06a.714.714,0,0,1-.119-.418.784.784,0,0,1,.771-.8h.009a.8.8,0,0,1,.8.8.784.784,0,0,1-.789.78h-.014a.672.672,0,0,1-.34-.078h0l-1.2,1.2H49.93a5.049,5.049,0,0,0-.262,1.216h2.676l1.019-1.037H55.74a.767.767,0,0,1,.78-.62.789.789,0,1,1,0,1.579.811.811,0,0,1-.757-.519H53.547l-1.019,1.019h-2.9a3.694,3.694,0,0,0-.041.78h4.493a.776.776,0,0,1,.757-.578.8.8,0,1,1,.037,1.6h-.037a.768.768,0,0,1-.757-.578H49.591a2.988,2.988,0,0,0,.041.757h3.194l1.019,1.037H56.1a.756.756,0,0,1,.739-.519.784.784,0,0,1,.8.771v.009a.8.8,0,0,1-.8.8.809.809,0,0,1-.78-.638h-2.4l-1.033-1.019H49.7a6.222,6.222,0,0,0,.239,1.2h3.034L54.148,28.4a.768.768,0,0,1,.363-.1.8.8,0,1,1-.8.8h0a.939.939,0,0,1,.119-.4l-1.037-1.037H50.05A8.336,8.336,0,0,0,50.49,28.8h1.276a.523.523,0,0,1,.519-.363.551.551,0,0,1,.56.537V29a.562.562,0,0,1-.56.56.537.537,0,0,1-.519-.381h-1.1a10.46,10.46,0,0,0,16.838,2.8c.179-.179.363-.4.56-.6a9.58,9.58,0,0,0,1.239-1.84,2.605,2.605,0,0,0,.179-.358.016.016,0,0,0,0-.009H68.412l-.009.009a.532.532,0,0,1-.5.381.572.572,0,0,1-.578-.56.56.56,0,0,1,.564-.56H67.9a.512.512,0,0,1,.5.363l0,0H69.66v0a9.13,9.13,0,0,0,.418-1.138H67.384L66.324,28.7a.727.727,0,0,1,.119.4.789.789,0,1,1-.8-.8.857.857,0,0,1,.381.1l1.157-1.179H70.2a1.8,1.8,0,0,0,.1-.34c.018-.2.078-.418.1-.679a.609.609,0,0,0,.018-.184H67.531l-1.019,1.019h-2.4a.8.8,0,0,1-1.574-.161.783.783,0,0,1,.785-.78h.009a.721.721,0,0,1,.721.519h2.276l1.019-1.037h3.157q.034-.31.041-.62c0-.041.018-.1,0-.138l-4.484-.014ZM61.8,26.432h-.734L59.242,24.17v2.263h-.913V22.472h.711l1.845,2.322V22.472H61.8Z" transform="translate(-26.828 -7.632)"/></g></svg>