<svg xmlns="http://www.w3.org/2000/svg" xmlns:xlink="http://www.w3.org/1999/xlink" width="1053" height="117" viewBox="0 0 1053 117"><defs><style>.a{fill:url(#a);}.b{opacity:0.39;}.b,.d{mix-blend-mode:soft-light;isolation:isolate;}.b,.d,.f{clip-path:url(#b);}.c,.e{opacity:0.5;}.c{fill:url(#c);}.d{opacity:0.68;}.e{fill:url(#e);}.g{fill:#fff;}.h{fill:#f1f2f2;}.i{clip-path:url(#j);}.j{clip-path:url(#k);}</style><linearGradient id="a" x1="0.303" y1="1.203" x2="0.772" y2="-0.122" gradientUnits="objectBoundingBox"><stop offset="0" stop-color="#23c66d"/><stop offset="1" stop-color="#009442"/></linearGradient><clipPath id="b"><rect width="1053" height="116" transform="translate(72.75 56.34)"/></clipPath><radialGradient id="c" cx="0.914" cy="0.197" r="0.991" gradientTransform="matrix(0.516, 0.207, -0.109, 0.978, 0.425, -0.183)" gradientUnits="objectBoundingBox"><stop offset="0" stop-color="#fff"/><stop offset="1" stop-color="#231f20"/></radialGradient><radialGradient id="e" cx="0.927" cy="0.153" r="0.873" gradientTransform="translate(0.221) scale(0.558 1)" xlink:href="#c"/><clipPath id="j"><rect width="1053" height="103" transform="translate(72.75 56.557)"/></clipPath><clipPath id="k"><rect width="1053" height="117" transform="translate(262.75 56.34)"/></clipPath></defs><g transform="translate(-72.75 -56.34)"><rect class="a" width="1053" height="117" transform="translate(72.75 56.34)"/><g transform="translate(0 1)"><g class="b"><path class="c" d="M300.75,190.34,662.77,20.98l91.3,27.84L346.7,205.17l5.56,14.64L1071.67,18.32l119.08,29.02L430.34,311.43l23.83,29.27,449.42-38.18-21.15,29.66L459.58,355.91l6.84,30.15,405.75,29.63L834.65,472.5,709.42,487.36l-278.8-77.14L312.82,239.81Z"/></g><g class="d"><path class="e" d="M66.75,95.34l88-54L251.09.67,16.63,152.72l5.42,8.43L329.9,0l52.54,18.13L503.75,33.34,83.14,208.18l18.81,15.17,168.8-41.01-2,14L107.36,232.17l8.29,17.98L373.8,214.83,357.83,255.4l-76.49,25.94L96.43,270.04,0,178.92Z"/></g><g class="f"><path class="g" d="M675.25,45.22s-5.62,2.48-4.62,13.88c0,0-11.68,2.3-11.61,15.1,0,0-3.72-.64-6.05,5.56L635.52,94.04,746.43,51.23Z"/></g><g class="f"><path class="h" d="M683.86,45.82s-7.88,4.38-6.57,15.67c0,0-12.07.24-12.1,13.93,0,0-6.43.79-9.31,8.94l84.38-33.02Z"/></g><g class="f"><path class="g" d="M126.72,162.25l-15.88,6.23,3.29-2.98a1.817,1.817,0,0,1,1.37-1.41,1.866,1.866,0,0,1,1.79-2.01A2.872,2.872,0,0,1,119.3,159a2.411,2.411,0,0,1,3.03,1.5s1.25-.78,1.71.4a1.013,1.013,0,0,1,1.15,1.01Z"/><g transform="translate(382.75 147.333)"><path class="g" d="M73.09,16.86,0,39.64,14.59,29.19s1.2-5.37,6.57-6.2c0,0-.55-7.84,8.66-8.84,0,0-.77-11.22,9.87-13.74S53.27,7.93,53.27,7.93s5.88-3.32,7.77,2.19c0,0,5.18-.26,5.08,4.88Z"/><path class="h" d="M9.78,35.24,68.77,17.05l-5.61-1.88s.13-3.35-3.92-3.31c0,0-2.59-4.71-8.26-2.18,0,0-1.36-7.78-11.12-5.69s-8.03,11.75-8.03,11.75S24.79,17.14,24.4,24c0,0-5.33.48-5.8,5.88Z"/></g></g><g class="i" transform="translate(0 12.783)"><ellipse class="g" cx="32.898" cy="34.248" rx="32.898" ry="34.248" transform="translate(1094.562 87.732)"/><path class="g" d="M24.5.494C37.708.41,48.349,10.651,48.265,23.367S37.4,46.46,24.194,46.544.343,36.386.426,23.67,11.287.577,24.5.494Z" transform="matrix(0.162, -0.987, 0.987, 0.162, 1063.763, 173.059)"/><ellipse class="g" cx="31.231" cy="32.513" rx="31.231" ry="32.513" transform="translate(1012.929 139.848)"/><rect class="g" width="31.804" height="9.859" transform="translate(1094.562 148.683)"/></g><g class="j" transform="translate(-190 -1)"><path class="h" d="M1312.181,120.85s-26.87,2.875-24.943,35.181c0,0-32.629-8.311-41.9,20.788h66.851V120.85Z" transform="translate(10.107 0.556)"/></g></g></g></svg>