<?xml version="1.0" encoding="UTF-8"?>
<svg viewBox="0 0 134.9 153.88" xmlns="http://www.w3.org/2000/svg">
<defs>
<style>.a,.e{clip-path:url(#a);}.b{fill:#f29344;}.c{fill:#11273c;}.d,.i{fill:#fff;}.e{opacity:0.43;}.f,.h{fill:#414aa9;}.f,.g{opacity:0.15;}.i{font-size:21px;font-family:Poppins-Bold, Poppins;font-weight:700;}</style>
<clipPath id="a">
<path transform="translate(-79.37 -159.52)" d="m87.365 159.52h118.91a8 8 0 0 1 8 8v137.89a8 8 0 0 1-8 8h-118.91a8 8 0 0 1-8-8v-137.9a8 8 0 0 1 8-7.995z"/>
</clipPath>
</defs>
<g transform="translate(-79.37 -159.52)">
<g transform="translate(79.37 159.52)">
<g class="a" transform="translate(0)">
<rect class="b" transform="translate(-2.762 -2.308)" width="142.42" height="158.35"/>
</g>
<g class="a" transform="translate(0)">
<path class="c" transform="translate(-63.029 -123.48)" d="M138.485,196.178h-1.507c-.084-.1-.2-.076-.306-.08a3.41,3.41,0,0,1-1.863-1.1,2.9,2.9,0,0,0-2.04-.793,2.316,2.316,0,0,0-1.221.4,14.061,14.061,0,0,0-1.121.873,2.182,2.182,0,0,1-1.251.621c-.126.013-.264-.034-.365.08h-1.427a.554.554,0,0,0-.374-.08,2.088,2.088,0,0,1-1.217-.6,12.439,12.439,0,0,0-1.016-.81,2.549,2.549,0,0,0-3.328.26c-.29.248-.588.483-.89.718a1.764,1.764,0,0,1-1.037.432c-.1.008-.222-.017-.306.08h-1.666a4.688,4.688,0,0,1-2.182-1.339,2.564,2.564,0,0,0-3.492.076,13.28,13.28,0,0,1-1.154.9,1.612,1.612,0,0,1-.81.285c-.126.013-.264-.034-.365.08H108.28c-.076-.092-.185-.076-.285-.08h-.218a2.014,2.014,0,0,1-1.192-.567c-.3-.256-.621-.491-.928-.739a2.508,2.508,0,0,0-3.236-.013c-.436.34-.835.722-1.305,1.024a1.713,1.713,0,0,1-.806.3h-.218c-.1,0-.21-.017-.29.08H98.614c-.1-.113-.239-.067-.361-.08a1.858,1.858,0,0,1-1.238-.537c-.353-.277-.692-.571-1.058-.831a2.487,2.487,0,0,0-3.295.159c-.319.277-.663.52-.982.8a3.386,3.386,0,0,1-1.146.491H88.714a5.331,5.331,0,0,1-2.313-1.414,2.518,2.518,0,0,0-3.295.076c-.357.29-.713.579-1.079.856a1.793,1.793,0,0,1-.969.4H80.84c-.1,0-.21-.017-.29.08H79.363c-.1-.113-.239-.067-.365-.08a1.6,1.6,0,0,1-.923-.315,11.909,11.909,0,0,1-1.15-.9,2.521,2.521,0,0,0-3.29-.164c-.39.294-.755.617-1.137.915a1.852,1.852,0,0,1-1.07.457c-.109.008-.222-.017-.306.08H69.454a5.46,5.46,0,0,1-2.35-1.448,2.521,2.521,0,0,0-3.269.126c-.361.311-.73.6-1.116.881a1.747,1.747,0,0,1-.907.357c-.126.013-.264-.034-.365.08H60.019a.554.554,0,0,0-.374-.08,2.2,2.2,0,0,1-1.246-.625,10.49,10.49,0,0,0-1.053-.827,2.489,2.489,0,0,0-3.009.113c-.441.348-.856.739-1.33,1.045a1.7,1.7,0,0,1-.8.3h-.218c-.1,0-.21-.017-.29.08-.407.088-.487-.067-.487-.474q.019-31.074,0-62.148c0-.281.038-36.131.353-36.131q78.913.013,157.83,0c.315,0,.353,35.85.353,36.131q-.013,30.243-.008,60.482c-.05.042-.092.109-.151.122a3.781,3.781,0,0,0-1.851,1.053,3.705,3.705,0,0,1-1.8.965h-1.347c-.076-.092-.185-.076-.29-.08h-.222a2.265,2.265,0,0,1-1.2-.554c-.411-.306-.793-.651-1.2-.961a2.667,2.667,0,0,0-2.992.155,11.563,11.563,0,0,1-1.2.965,1.835,1.835,0,0,1-1.011.395c-.126.013-.264-.034-.369.08H195c-.076-.092-.185-.076-.29-.08h-.222a3.327,3.327,0,0,1-1.872-1.083,2.988,2.988,0,0,0-2.023-.827,2.625,2.625,0,0,0-1.738.722c-.348.3-.713.579-1.091.844a1.745,1.745,0,0,1-.911.344h-.227c-.122.008-.256-.034-.357.08h-1.032c-.1-.113-.239-.067-.365-.08a2.118,2.118,0,0,1-1.335-.625c-.323-.294-.688-.533-1.024-.81a2.6,2.6,0,0,0-3.185.155,11.961,11.961,0,0,1-1.112.886,1.793,1.793,0,0,1-1.016.395c-.126.013-.264-.034-.369.08h-1.267c-.1-.113-.239-.067-.365-.08a2.773,2.773,0,0,1-1.511-.8,4.913,4.913,0,0,0-1.284-.915,2.6,2.6,0,0,0-2.77.487c-.311.269-.634.516-.953.772a1.92,1.92,0,0,1-1.074.457c-.126.013-.264-.034-.369.08h-1.507a5.363,5.363,0,0,1-2.38-1.465,2.582,2.582,0,0,0-3.215.067c-.332.281-.684.533-1.016.818a1.863,1.863,0,0,1-1.3.5c-.168.021-.348-.055-.5.08h-.793c-.1-.109-.231-.071-.353-.08h-.222a2.2,2.2,0,0,1-1.2-.55c-.357-.273-.718-.537-1.049-.839a2.59,2.59,0,0,0-3.185.071c-.369.319-.76.613-1.142.911a1.78,1.78,0,0,1-.969.4h-.222c-.1,0-.214-.017-.29.08h-1.267a.554.554,0,0,0-.374-.08,1.879,1.879,0,0,1-1.066-.474c-.34-.29-.709-.541-1.049-.835a2.5,2.5,0,0,0-3.106-.1c-.411.306-.793.646-1.2.961a1.852,1.852,0,0,1-1.07.457C138.687,196.1,138.569,196.077,138.485,196.178Z"/>
</g>
<g class="a" transform="translate(0)">
<path class="d" transform="translate(-257.26 -219.1)" d="m390.64 271.65a4.709 4.709 0 1 1 0.734-0.055 4.805 4.805 0 0 1-0.734 0.055zm0.021-8.763a4.068 4.068 0 0 0-3.265 1.654 4.031 4.031 0 1 0 5.636-0.877 4.027 4.027 0 0 0-2.371-0.777z"/>
</g>
<g class="e" transform="translate(0)">
<circle class="f" transform="translate(-33.311 80.338)" cx="26.881" cy="26.881" r="26.881"/>
<g class="g" transform="translate(-14.934 -10.825)">
<path class="h" transform="translate(-43.786 -133.73)" d="m52.123 210.52c4.764-6.5 14.9-5.59 22.114-2s13.69 9.221 21.66 10.392c9.313 1.368 18.781-4.063 23.881-11.974s6.308-17.833 5.2-27.179-4.369-18.286-7.643-27.108c-1.838-4.944-3.84-10.11-7.861-13.527-4.562-3.878-10.891-4.8-16.867-5.162a132.91 132.91 0 0 0-35.951 2.734c-2.686 0.579-5.46 1.293-7.571 3.055-3.639 3.043-4.34 8.289-4.659 13.023a281.35 281.35 0 0 0 0.562 44.937"/>
</g>
<g class="g" transform="translate(40.565 62.049)">
<path class="h" transform="translate(-176.02 -307.36)" d="M178.092,409.99c-5.3-15.071-.315-34.36,13.9-41.646,12.083-6.19,28.409-3.253,38.159-12.7,4.957-4.805,6.98-11.781,9.17-18.324,2.715-8.1,6.128-16.255,12.184-22.286s15.315-9.51,23.369-6.661c6.791,2.4,11.533,8.826,13.745,15.684s2.275,14.194,2.317,21.4c.076,12.939.147,25.958-2.048,38.708-1.129,6.556-2.98,13.258-7.332,18.29-3.656,4.23-8.78,6.917-14,8.935-23.923,9.254-50.619,6.052-76.048,2.711"/>
</g>
<circle class="f" transform="translate(75.649 43.056) rotate(-76.774)" cx="7.131" cy="7.131" r="7.131"/>
<circle class="f" transform="translate(74.617 20.468)" cx="2.652" cy="2.652" r="2.652"/>
<circle class="f" transform="translate(3.03 146.29)" cx="11.521" cy="11.521" r="11.521"/>
<circle class="f" transform="translate(93.739 22.481) rotate(-45)" cx="22.034" cy="22.034" r="22.034"/>
</g>
</g>
<g transform="translate(84.351 169.3)">
<path class="d" transform="translate(-158.58 -223.61)" d="m254.53 253.62a2.622 2.622 0 1 1-3.664 0.571 2.623 2.623 0 0 1 3.664-0.571z"/>
<path class="d" transform="translate(-129.42 -182.82)" d="m159.86 188.48a2.827 2.827 0 1 1 0.441-0.034 2.6 2.6 0 0 1-0.441 0.034zm8e-3 -5.242a2.29 2.29 0 0 0-0.378 0.029 2.414 2.414 0 1 0 1.792 0.436 2.361 2.361 0 0 0-1.414-0.465z"/>
<path class="d" transform="translate(-102 -215.3)" d="m113.45 243.49-3.656-3.055 4.764-1.633z"/>
<path class="d" transform="translate(-237.59 -285.59)" d="M348.762,362.2c-.638-.63-1.272-1.267-1.905-1.905a1.469,1.469,0,0,0-.516-.374h-.1a1.47,1.47,0,0,0-.516.374c-.63.638-1.267,1.272-1.905,1.905a1.469,1.469,0,0,0-.374.516v.1a1.469,1.469,0,0,0,.374.516c.638.63,1.272,1.267,1.905,1.905a1.47,1.47,0,0,0,.516.374h.1a1.47,1.47,0,0,0,.516-.374c.63-.638,1.267-1.272,1.905-1.905a1.47,1.47,0,0,0,.374-.516v-.1A1.566,1.566,0,0,0,348.762,362.2Zm-.734.705c-.541.533-1.079,1.066-1.607,1.607-.1.1-.151.122-.26.008q-.806-.825-1.624-1.628c-.088-.088-.113-.138-.008-.239.554-.541,1.1-1.1,1.649-1.641.034-.034.071-.067.143-.134a1.3,1.3,0,0,0,.092.147c.541.546,1.079,1.091,1.628,1.624C348.153,362.757,348.124,362.807,348.027,362.9Z"/>
<path class="d" transform="translate(-91.238 -278.28)" d="M95.142,347.319c-1.007.025-2.01.046-3.018.059a1.682,1.682,0,0,0-.705.126c-.025.029-.055.055-.08.084a1.7,1.7,0,0,0-.1.709c.025,1.007.046,2.01.059,3.018a1.682,1.682,0,0,0,.126.705c.029.025.055.055.084.08a1.7,1.7,0,0,0,.709.1c1.007-.025,2.01-.046,3.018-.059a1.681,1.681,0,0,0,.705-.126c.025-.029.055-.055.08-.084a1.7,1.7,0,0,0,.1-.709c-.025-1.007-.046-2.01-.059-3.018a1.682,1.682,0,0,0-.126-.705c-.029-.025-.055-.055-.084-.08A1.694,1.694,0,0,0,95.142,347.319Zm0,1.137c.008.848.025,1.7.05,2.548,0,.155-.021.214-.193.214-.86,0-1.717.025-2.577.046-.143,0-.2-.013-.2-.18-.008-.869-.029-1.738-.046-2.606v-.222a1,1,0,0,0,.189.038c.86-.013,1.717-.025,2.577-.05C95.121,348.242,95.142,348.305,95.142,348.456Z"/>
</g>
<text class="i" transform="translate(89.473 218.52)"><tspan x="0" y="0">Projects</tspan></text>
</g>
</svg>
