<svg xmlns="http://www.w3.org/2000/svg" width="296.315" height="189.498" viewBox="0 0 296.315 189.498"><defs><style>.a{fill:#fafafa;}.b{fill:#ebebeb;}.c{fill:#00a651;}.d{fill:#263238;}.e{fill:#455a64;}.f{fill:#e0e0e0;}.g{fill:#f5f5f5;}.h{opacity:0.3;}.i{opacity:0.2;}.j{fill:#fff;}</style></defs><g transform="translate(48.829)"><rect class="a" width="218.76" height="146.518"/><rect class="b" width="218.76" height="14.634"/><g transform="translate(5.932 5.675)"><path class="a" d="M95.11,11.135a1.775,1.775,0,0,1-3.54,0,1.775,1.775,0,0,1,3.54,0Z" transform="translate(-91.57 -9.49)"/></g><g transform="translate(11.638 5.675)"><path class="a" d="M104.65,11.135a1.775,1.775,0,0,1-3.54,0,1.775,1.775,0,0,1,3.54,0Z" transform="translate(-101.11 -9.49)"/></g><g transform="translate(17.343 5.675)"><path class="a" d="M114.19,11.135a1.775,1.775,0,0,1-3.54,0,1.775,1.775,0,0,1,3.54,0Z" transform="translate(-110.65 -9.49)"/></g></g><g transform="translate(234.889 86.757)"><path class="c" d="M406.393,223.939c-11.434-7.99-14.024-22.815-13.575-36.139.078-2.225-.167-4.569.891-6.519s3.528-3.283,5.52-2.35c1.651.777,2.374,2.7,3.3,4.288a13.018,13.018,0,0,0,5.215,4.982c1.417.736,3.17,1.184,4.569.413,1.92-1.059,2.147-3.708,2.129-5.921q-.036-6.19-.078-12.367a20.691,20.691,0,0,1,.67-6.572,6.866,6.866,0,0,1,4.312-4.641c2.105-.592,4.707.622,5.149,2.787a21.143,21.143,0,0,1,.066,2.757,2.315,2.315,0,0,0,1.363,2.189,2.678,2.678,0,0,0,2.428-1.017,29.459,29.459,0,0,0,5.281-7.972,40.659,40.659,0,0,1,4.928-8.229c2.069-2.434,4.94-4.366,8.1-4.545s6.542,1.776,7.344,4.886-1.017,6.285-3,8.809a49.467,49.467,0,0,1-10.28,9.8A4.074,4.074,0,0,0,439,170.427c-.478,1.477.915,2.942,2.374,3.427,1.651.55,3.439.377,5.161.58s3.594.963,4.246,2.6c.909,2.261-.987,4.629-2.847,6.184a42.428,42.428,0,0,1-12.523,7.23,14.319,14.319,0,0,0-4.653,2.261c-1.31,1.142-2.105,3.134-1.31,4.689s2.829,2.057,4.533,1.74a29.927,29.927,0,0,0,4.856-1.854c3.038-1.148,6.967-.939,8.917,1.692a7.005,7.005,0,0,1,.748,6.19,16.118,16.118,0,0,1-3.355,5.466,42.563,42.563,0,0,1-18.162,12.768c-7.051,2.446-13.587,3.11-20.6.544" transform="translate(-392.771 -145.071)"/><g transform="translate(13.449 1.865)"><path class="d" d="M415.26,235.072a97.32,97.32,0,0,1,3.612-18.234,198.451,198.451,0,0,1,7.87-21.344q1.193-2.781,2.35-5.49c.777-1.8,1.543-3.582,2.4-5.281a98,98,0,0,1,5.5-9.479c1.9-2.93,3.8-5.645,5.6-8.169s3.534-4.838,5.2-6.883a78.167,78.167,0,0,1,8.57-9.054c1.088-.987,1.962-1.722,2.56-2.213l.682-.556a1.845,1.845,0,0,1,.239-.179,1.24,1.24,0,0,1-.215.209l-.658.586c-.58.514-1.435,1.268-2.506,2.273a82.964,82.964,0,0,0-8.45,9.12c-1.645,2.051-3.355,4.372-5.149,6.9s-3.678,5.245-5.562,8.175a100.367,100.367,0,0,0-5.46,9.455c-.855,1.692-1.615,3.463-2.386,5.263s-1.555,3.636-2.35,5.484a202.482,202.482,0,0,0-7.882,21.29,99.242,99.242,0,0,0-3.69,18.156" transform="translate(-415.26 -148.189)"/></g><g transform="translate(26.564 14.041)"><path class="d" d="M440.431,192.89a4.263,4.263,0,0,1-.215-.945c-.114-.61-.257-1.5-.413-2.6-.311-2.2-.64-5.257-.993-8.63s-.718-6.417-1.064-8.606c-.167-1.094-.317-1.985-.425-2.6a4.664,4.664,0,0,1-.126-.963,4.252,4.252,0,0,1,.281.927c.155.6.347,1.483.55,2.578.419,2.189.837,5.239,1.184,8.612.335,3.325.64,6.339.873,8.642.114,1.041.2,1.914.281,2.613A4.075,4.075,0,0,1,440.431,192.89Z" transform="translate(-437.189 -168.55)"/></g><g transform="translate(29.806 33.041)"><path class="d" d="M471.052,200.344a5.83,5.83,0,0,1-1.136.138c-.73.066-1.788.155-3.086.3-2.607.281-6.19.8-10.119,1.537s-7.457,1.579-9.993,2.249c-1.268.329-2.29.622-3,.819a6.278,6.278,0,0,1-1.112.275,5.718,5.718,0,0,1,1.065-.425c.694-.245,1.7-.58,2.966-.945,2.524-.748,6.052-1.621,9.993-2.374A101.184,101.184,0,0,1,466.8,200.5c1.31-.114,2.374-.161,3.11-.173A7.054,7.054,0,0,1,471.052,200.344Z" transform="translate(-442.61 -200.32)"/></g><g transform="translate(3.09 33.668)"><path class="d" d="M412.262,237.694a1.636,1.636,0,0,1-.2-.347c-.132-.281-.293-.616-.484-1.029-.419-.9-.993-2.207-1.674-3.839-1.369-3.259-3.128-7.822-4.994-12.876s-3.576-9.634-4.88-12.911c-.64-1.6-1.166-2.906-1.555-3.881-.167-.425-.305-.771-.419-1.059a1.606,1.606,0,0,1-.12-.383,1.637,1.637,0,0,1,.2.347c.132.281.293.616.484,1.029.419.9.993,2.207,1.674,3.839,1.37,3.259,3.128,7.822,4.994,12.882s3.576,9.628,4.88,12.911c.64,1.6,1.166,2.906,1.555,3.881.167.425.3.771.419,1.059A1.532,1.532,0,0,1,412.262,237.694Z" transform="translate(-397.937 -201.37)"/></g><g transform="translate(17.408 57.806)"><path class="d" d="M459.681,241.737a1.6,1.6,0,0,1-.377.155c-.293.1-.658.221-1.1.371-1.017.329-2.38.771-4.049,1.31-3.415,1.106-8.121,2.691-13.312,4.449s-9.915,3.3-13.36,4.342c-1.722.52-3.116.927-4.085,1.184-.449.12-.819.215-1.118.293a1.9,1.9,0,0,1-.4.078,1.608,1.608,0,0,1,.377-.155c.293-.1.658-.221,1.1-.365,1.017-.329,2.38-.771,4.049-1.31,3.415-1.106,8.121-2.691,13.318-4.455s9.915-3.3,13.354-4.342c1.722-.52,3.116-.927,4.091-1.184.449-.12.819-.215,1.118-.293A1.256,1.256,0,0,1,459.681,241.737Z" transform="translate(-421.88 -241.731)"/></g></g><g transform="translate(0 28.353)"><g transform="translate(10.053)"><path class="d" d="M248.529,206.4H25.523a8.711,8.711,0,0,1-8.713-8.713V56.123a8.711,8.711,0,0,1,8.713-8.713H248.529a8.711,8.711,0,0,1,8.713,8.713V197.689A8.711,8.711,0,0,1,248.529,206.4Z" transform="translate(-16.81 -47.41)"/></g><g transform="translate(0 147.235)"><path class="d" d="M249.845,307.52H10.645A10.645,10.645,0,0,1,0,296.875V293.61H260.484v3.265A10.64,10.64,0,0,1,249.845,307.52Z" transform="translate(0 -293.61)"/></g><g transform="translate(16.506 6.315)"><rect class="e" width="226.851" height="134.27"/></g><g transform="translate(106.569 147.235)"><path class="e" d="M178.2,293.61l3.229,5.143h45.486l3-5.143Z" transform="translate(-178.2 -293.61)"/></g><g transform="translate(21.182 10.866)"><path class="b" d="M251.435,194.868H37.376a1.956,1.956,0,0,1-1.956-1.956V67.536a1.956,1.956,0,0,1,1.956-1.956H251.435a1.956,1.956,0,0,1,1.956,1.956V192.913A1.956,1.956,0,0,1,251.435,194.868Z" transform="translate(-35.42 -65.58)"/><g transform="translate(0 9.467)"><rect class="a" width="217.97" height="119.821"/></g><g transform="translate(14.395 3.247)"><path class="d" d="M62.971,72.75a1.74,1.74,0,1,1-1.74-1.74A1.738,1.738,0,0,1,62.971,72.75Z" transform="translate(-59.49 -71.01)"/></g><g transform="translate(3.845 3.247)"><path class="d" d="M45.331,72.75a1.74,1.74,0,1,1-1.74-1.74A1.738,1.738,0,0,1,45.331,72.75Z" transform="translate(-41.85 -71.01)"/></g><g transform="translate(8.911 3.247)"><path class="d" d="M53.8,72.75a1.74,1.74,0,1,1-1.74-1.74A1.738,1.738,0,0,1,53.8,72.75Z" transform="translate(-50.32 -71.01)"/></g></g><g transform="translate(10.053 147.08)"><path class="e" d="M255.173,293.505c0,.084-53.362.156-119.176.156-65.837,0-119.188-.072-119.188-.156S70.16,293.35,136,293.35C201.811,293.35,255.173,293.416,255.173,293.505Z" transform="translate(-16.81 -293.35)"/></g><g transform="translate(36.289 34.5)"><g transform="translate(0 46.192)"><rect class="f" width="49.738" height="3.325"/></g><g transform="translate(64.246)"><rect class="f" width="49.738" height="3.325"/></g><g transform="translate(64.246 12.236)"><path class="f" d="M291.825,125.715c0,.084-27.695.155-61.854.155s-61.86-.072-61.86-.155,27.689-.155,61.86-.155S291.825,125.626,291.825,125.715Z" transform="translate(-168.11 -125.56)"/></g><g transform="translate(64.246 19.502)"><path class="f" d="M291.825,137.866c0,.084-27.695.155-61.854.155s-61.86-.072-61.86-.155,27.689-.156,61.86-.156S291.825,137.776,291.825,137.866Z" transform="translate(-168.11 -137.71)"/></g><g transform="translate(64.246 26.768)"><path class="f" d="M291.825,150.015c0,.084-27.695.156-61.854.156s-61.86-.072-61.86-.156,27.689-.155,61.86-.155S291.825,149.926,291.825,150.015Z" transform="translate(-168.11 -149.86)"/></g><g transform="translate(64.246 34.034)"><path class="f" d="M291.825,162.165c0,.084-27.695.155-61.854.155s-61.86-.072-61.86-.155,27.689-.155,61.86-.155S291.825,162.076,291.825,162.165Z" transform="translate(-168.11 -162.009)"/></g><g transform="translate(64.246 41.294)"><path class="f" d="M291.825,174.306c0,.084-27.695.156-61.854.156s-61.86-.072-61.86-.156,27.689-.155,61.86-.155S291.825,174.222,291.825,174.306Z" transform="translate(-168.11 -174.15)"/></g><g transform="translate(64.24 48.56)"><path class="f" d="M216.4,186.456c0,.084-10.812.155-24.148.155s-24.148-.072-24.148-.155,10.812-.156,24.148-.156S216.4,186.372,216.4,186.456Z" transform="translate(-168.1 -186.3)"/></g><g transform="translate(105.744 62.662)"><path class="f" d="M318.814,210.036c0,.084-18.2.155-40.654.155s-40.66-.072-40.66-.155,18.2-.155,40.66-.155S318.814,209.952,318.814,210.036Z" transform="translate(-237.5 -209.88)"/></g><g transform="translate(105.744 70.376)"><path class="f" d="M318.814,222.936c0,.084-18.2.155-40.654.155s-40.66-.072-40.66-.155,18.2-.155,40.66-.155S318.814,222.852,318.814,222.936Z" transform="translate(-237.5 -222.78)"/></g><g transform="translate(105.744 78.091)"><path class="f" d="M318.814,235.835c0,.084-18.2.155-40.654.155s-40.66-.072-40.66-.155,18.2-.155,40.66-.155S318.814,235.746,318.814,235.835Z" transform="translate(-237.5 -235.68)"/></g><g transform="translate(105.744 85.799)"><path class="f" d="M318.814,248.726c0,.084-18.2.155-40.654.155s-40.66-.072-40.66-.155,18.2-.155,40.66-.155S318.814,248.642,318.814,248.726Z" transform="translate(-237.5 -248.57)"/></g><g transform="translate(1.387 61.926)"><path class="f" d="M111.476,208.806c0,.084-10.854.155-24.238.155S63,208.889,63,208.806s10.848-.155,24.238-.155S111.476,208.722,111.476,208.806Z" transform="translate(-63 -208.65)"/></g><g transform="translate(1.387 67.984)"><path class="f" d="M111.476,218.936c0,.084-10.854.155-24.238.155S63,219.019,63,218.936s10.848-.156,24.238-.156S111.476,218.846,111.476,218.936Z" transform="translate(-63 -218.78)"/></g><g transform="translate(1.387 74.042)"><path class="f" d="M111.476,229.066c0,.084-10.854.156-24.238.156S63,229.149,63,229.066s10.848-.155,24.238-.155S111.476,228.976,111.476,229.066Z" transform="translate(-63 -228.91)"/></g><g transform="translate(1.387 80.094)"><path class="f" d="M111.476,239.185c0,.084-10.854.155-24.238.155S63,239.269,63,239.185s10.848-.155,24.238-.155S111.476,239.1,111.476,239.185Z" transform="translate(-63 -239.03)"/></g><g transform="translate(1.387 86.152)"><path class="f" d="M111.476,249.315c0,.084-10.854.155-24.238.155S63,249.4,63,249.315s10.848-.155,24.238-.155S111.476,249.232,111.476,249.315Z" transform="translate(-63 -249.16)"/></g><g transform="translate(64.217 59.139)"><rect class="g" width="35.29" height="34.142"/><g transform="translate(2.733 13.653)"><path class="b" d="M172.63,244.39l9.766-17.57,7.984,11.225,4.85-5.962,7.218,12.307Z" transform="translate(-172.63 -226.82)"/></g><g transform="translate(18.802 7.691)"><path class="b" d="M204.583,219.392a2.542,2.542,0,1,1-2.542-2.542A2.54,2.54,0,0,1,204.583,219.392Z" transform="translate(-199.5 -216.85)"/></g><g transform="translate(2.528 2.647)"><path class="b" d="M202.31,237.082a1.236,1.236,0,0,1-.006-.138c0-.1-.006-.233-.006-.4-.006-.365-.012-.873-.018-1.537-.006-1.352-.024-3.313-.036-5.8-.018-4.988-.042-12.086-.072-20.614l.144.144c-8.636.006-18.874.018-29.818.024-.042.036.317-.317.167-.161v7.661q0,3.768-.006,7.356c-.006,4.784-.012,9.305-.018,13.462l-.144-.144,21.559.072c2.607.018,4.659.03,6.082.036q1.041.009,1.615.018c.173.006.311.006.419.006a.727.727,0,0,0,.138.018.938.938,0,0,1-.132.006c-.1,0-.233.006-.4.006-.377.006-.9.012-1.585.018-1.411.012-3.457.024-6.046.036l-21.655.072h-.144v-.15c-.006-4.156-.012-8.677-.018-13.462,0-2.392,0-4.85-.006-7.356v-7.661c-.15.15.2-.209.173-.173,10.944.006,21.182.018,29.818.024h.144v.144c-.03,8.564-.054,15.7-.072,20.71-.018,2.47-.03,4.419-.036,5.765-.006.646-.012,1.154-.018,1.507-.006.161-.006.287-.006.383S202.316,237.088,202.31,237.082Z" transform="translate(-172.288 -208.416)"/></g></g></g><g transform="translate(37.221 28.819)"><rect class="g" width="47.866" height="46.306"/><g transform="translate(3.714 18.515)"><path class="f" d="M68.45,150.386,81.69,126.56l10.83,15.232,6.584-8.091,9.79,16.685Z" transform="translate(-68.45 -126.56)"/></g><g transform="translate(25.512 10.436)"><path class="f" d="M111.789,116.495a3.445,3.445,0,1,1-3.445-3.445A3.446,3.446,0,0,1,111.789,116.495Z" transform="translate(-104.9 -113.05)"/></g><g transform="translate(3.436 3.608)"><path class="f" d="M108.708,140.5a1.29,1.29,0,0,1-.012-.191c0-.138-.006-.317-.012-.538-.006-.49-.012-1.19-.024-2.081-.012-1.836-.03-4.491-.048-7.864-.024-6.764-.06-16.4-.1-27.958l.2.2c-11.715.012-25.6.018-40.439.03-.054.048.431-.431.221-.221v10.394q0,5.1-.006,9.981c-.006,6.483-.018,12.618-.024,18.258l-.2-.2,29.244.1,8.247.054c.939.012,1.674.018,2.189.024.239.006.425.006.568.012a.867.867,0,0,1,.2,0,.865.865,0,0,1-.179.012c-.138,0-.317.006-.544.012-.508.006-1.226.012-2.147.024l-8.2.054-29.369.1h-.2v-.2c-.006-5.639-.012-11.775-.024-18.258,0-3.241-.006-6.578-.006-9.981V101.87c-.2.2.275-.287.233-.233,14.843.012,28.723.024,40.439.03h.2v.2c-.042,11.614-.078,21.29-.1,28.084-.024,3.355-.042,5.992-.054,7.822-.012.879-.018,1.561-.024,2.045-.006.215-.006.383-.012.52A1.5,1.5,0,0,1,108.708,140.5Z" transform="translate(-67.985 -101.633)"/></g></g></g><g transform="translate(99.279 56.43)"><g transform="translate(10.507)"><path class="d" d="M227.99,129.614l-4.784-.066.179-13.025a17.421,17.421,0,0,0-34.841.036l-.179,13.061-4.784-.066.179-13.025a22.2,22.2,0,0,1,44.41.036Z" transform="translate(-183.58 -94.36)"/></g><g transform="translate(0 28.897)"><path class="c" d="M221.37,207.459H176.948a10.939,10.939,0,0,1-10.938-10.938v-42.9a10.939,10.939,0,0,1,10.938-10.938h44.428a10.939,10.939,0,0,1,10.938,10.938v42.9A10.944,10.944,0,0,1,221.37,207.459Z" transform="translate(-166.01 -142.68)"/></g><g class="h" transform="translate(26.541 51.269)"><path d="M223.606,186.7a6.608,6.608,0,1,0-10.089,5.61l-1.692,7.828h10.842s-1.22-4.916-1.985-7.954A6.594,6.594,0,0,0,223.606,186.7Z" transform="translate(-210.39 -180.09)"/></g><g class="i" transform="translate(3.744 40.319)"><path class="j" d="M172.772,195.5c-.431-.012-.622-7.565-.425-16.876s.7-16.852,1.13-16.847.622,7.565.425,16.876S173.2,195.509,172.772,195.5Z" transform="translate(-172.27 -161.78)"/></g><g class="i" transform="translate(3.492 78.222)"><path class="j" d="M172.651,228.467c-.431.006-.789-.73-.8-1.645s.329-1.657.76-1.663.789.73.8,1.645S173.082,228.461,172.651,228.467Z" transform="translate(-171.85 -225.16)"/></g><g class="i" transform="translate(23.337 52.556)"><path class="j" d="M206.783,202.059c-.341-.114.466-3.558,1.872-8.139l.173.76c-.634-.634-1.3-1.3-2-2.033a7.276,7.276,0,0,1-1.788-4.4,6.8,6.8,0,0,1,.879-3.732,5.822,5.822,0,0,1,1.68-1.9c.49-.341.819-.431.879-.347.155.191-.861.993-1.573,2.727a6.39,6.39,0,0,0,1.07,6.608c.67.706,1.316,1.393,1.926,2.033l.323.341-.144.419C208.517,198.919,207.13,202.173,206.783,202.059Z" transform="translate(-205.032 -182.241)"/></g><g class="i" transform="translate(6.183 32.418)"><path class="j" d="M222.625,149.556c0,.215-2.649.389-6.931.5s-10.19.15-16.715.1c-3.265-.024-6.375-.072-9.2-.132-2.829-.03-5.388-.233-7.428-.024a9.6,9.6,0,0,0-4.539,1.531c-.951.652-1.34,1.2-1.447,1.124-.072-.036.15-.724,1.064-1.6a9.064,9.064,0,0,1,4.766-2.153,23.688,23.688,0,0,1,3.57-.281c1.262-.012,2.607-.03,4.019-.042,2.829-.018,5.938-.018,9.2.006,6.525.048,12.439.179,16.715.353S222.625,149.341,222.625,149.556Z" transform="translate(-176.349 -148.569)"/></g></g></svg>