<svg xmlns="http://www.w3.org/2000/svg" width="152.165" height="146.256" viewBox="0 0 152.165 146.256"><defs><style>.a{fill:#008945;}.b{fill:#93d186;}</style></defs><g transform="translate(-574 -182.743)"><path class="a" d="M-1899.5-826.663a66.079,66.079,0,0,1-25.884-5.225,66.287,66.287,0,0,1-21.137-14.252,66.275,66.275,0,0,1-14.252-21.137A66.08,66.08,0,0,1-1966-893.162a66.087,66.087,0,0,1,5.226-25.885,66.276,66.276,0,0,1,14.252-21.137,66.265,66.265,0,0,1,21.137-14.251,66.079,66.079,0,0,1,25.884-5.226,66.089,66.089,0,0,1,25.886,5.226,66.251,66.251,0,0,1,17.3,10.7c-2.244,2.964-4.684,6.2-7.25,9.632a54.417,54.417,0,0,0-35.936-13.558,54.562,54.562,0,0,0-54.5,54.5,54.561,54.561,0,0,0,54.5,54.5,54.562,54.562,0,0,0,54.5-54.5,54.515,54.515,0,0,0-1.706-13.554c2.831-4.521,5.566-8.944,8.127-13.147.11.25.235.54.352.817A66.084,66.084,0,0,1-1833-893.162a66.084,66.084,0,0,1-5.225,25.885,66.287,66.287,0,0,1-14.251,21.137,66.289,66.289,0,0,1-21.137,14.252A66.09,66.09,0,0,1-1899.5-826.663Z" transform="translate(2540 1155.662)"/><g transform="translate(605.205 182.743)"><path class="a" d="M45.812,85.025S82.695,28.678,101.452,9.475C114.261-3.638,118.215.682,118.215.682s2.1,1.717,1.05,6.106a9.6,9.6,0,0,1-1.86,4.16c-23.025,26.375-51.593,85.7-55.1,90.564-3.572,4.946-14.839,16.488-24.182,8.519S1.57,78.43,1.57,78.43s-4.946-7.145,2.748-16.213c5.5-6.045,14.564,0,14.564,0S41.965,79.529,45.812,85.025Z" transform="translate(0 0)"/><path class="b" d="M50.912,86.025s36.883-56.347,55.641-75.549c12.808-13.113,16.763-8.793,16.763-8.793s2.1,1.717,1.05,6.106a9.6,9.6,0,0,1-1.86,4.16c-23.025,26.375-51.593,85.7-55.1,90.564-3.572,4.946-14.839,16.488-24.182,8.519S6.67,79.43,6.67,79.43,1.723,72.285,9.418,63.217c5.5-6.046,14.564,0,14.564,0S47.065,80.529,50.912,86.025Z" transform="translate(-3.699 -0.725)"/></g></g></svg>