<svg xmlns="http://www.w3.org/2000/svg" width="14" height="14" viewBox="0 0 14 14"><defs><style>.a{fill:none;}.b{opacity:0.6;}.c{fill:#202124;}</style></defs><g transform="translate(-961 -389)"><rect class="a" width="14" height="14" transform="translate(961 389)"/><g class="b" transform="translate(962.997 392.991)"><g transform="translate(0.374 0.009)"><ellipse class="c" cx="1.68" cy="1.477" rx="1.68" ry="1.477" transform="translate(3.104 1.462)"/><path class="c" d="M965.992,325.48a7.226,7.226,0,0,1-4.627-2.137.38.38,0,0,1-.195-.2.4.4,0,0,1-.008-.278c0-.007.008-.015.008-.022a.385.385,0,0,1,.18-.21,7.292,7.292,0,0,1,4.635-2.137,6.918,6.918,0,0,1,4.552,2.175.352.352,0,0,1,.127.15.409.409,0,0,1,.038.165.439.439,0,0,1-.03.173.412.412,0,0,1-.157.18A6.863,6.863,0,0,1,965.992,325.48Zm-3.915-2.5a6.365,6.365,0,0,0,3.907,1.747,5.982,5.982,0,0,0,3.81-1.747,5.941,5.941,0,0,0-3.81-1.74A6.322,6.322,0,0,0,962.078,322.982Z" transform="translate(-961.141 -320.5)"/></g><path class="c" d="M.376,5.1a.376.376,0,0,1-.36-.277.382.382,0,0,1,.255-.465A8.314,8.314,0,0,0,1.1,3.809a.384.384,0,0,1,.525.1.376.376,0,0,1-.1.525,5.444,5.444,0,0,1-1.042.652C.443,5.092.406,5.1.376,5.1Z" transform="translate(0 -0.935)"/><path class="c" d="M12.652,5.225a.443.443,0,0,1-.1-.015,4.823,4.823,0,0,1-1.042-.66.378.378,0,1,1,.427-.622,9.778,9.778,0,0,0,.87.57.34.34,0,0,1,.232.45A.379.379,0,0,1,12.652,5.225Z" transform="translate(-2.835 -0.963)"/><path class="c" d="M10.737,6.677a.351.351,0,0,1-.21-.067,8.791,8.791,0,0,1-.847-.915.37.37,0,0,1,.037-.525.379.379,0,0,1,.532.037c.585.682.727.8.727.81a.375.375,0,0,1,.052.517A.358.358,0,0,1,10.737,6.677Z" transform="translate(-2.397 -1.267)"/><path class="c" d="M2.015,6.57a.375.375,0,0,1-.262-.645h0a6.04,6.04,0,0,0,.7-1.057.37.37,0,0,1,.51-.135.366.366,0,0,1,.142.51,5.817,5.817,0,0,1-.832,1.215A.352.352,0,0,1,2.015,6.57Z" transform="translate(-0.409 -1.168)"/><path class="c" d="M8.307,7.529a.38.38,0,0,1-.375-.367c0,.015-.045-.172-.382-.945a.374.374,0,0,1,.195-.495.39.39,0,0,1,.495.2,3.916,3.916,0,0,1,.442,1.23.376.376,0,0,1-.375.375Z" transform="translate(-1.879 -1.422)"/><path class="c" d="M4.635,7.33h0a.4.4,0,0,1-.375-.4A3.916,3.916,0,0,1,4.7,5.695a.376.376,0,0,1,.69.3,6.1,6.1,0,0,0-.382.982A.362.362,0,0,1,4.635,7.33Z" transform="translate(-1.065 -1.365)"/></g></g></svg>