<svg xmlns="http://www.w3.org/2000/svg" width="14" height="14" viewBox="0 0 14 14"><defs><style>.a{fill:none;}.b{opacity:0.6;}.c{fill:#202124;}</style></defs><g transform="translate(-961 -389)"><rect class="a" width="14" height="14" transform="translate(961 389)"/><g class="b" transform="translate(962.997 395.003)"><g transform="translate(0.374 -0.003)"><path class="c" d="M970.544,320.549a.352.352,0,0,1,.128.15.408.408,0,0,1,.037.165.441.441,0,0,1-.03.172.412.412,0,0,1-.158.18,6.8,6.8,0,0,1-4.53,2.145,7.226,7.226,0,0,1-4.627-2.137.381.381,0,0,1-.2-.195.4.4,0,0,1-.008-.277c0-.007.008-.015.008-.022a.386.386,0,0,1,.18-.21s.4-.187.72.352a6.364,6.364,0,0,0,3.907,1.747,5.981,5.981,0,0,0,3.81-1.747C969.8,320.872,970.282,320.355,970.544,320.549Z" transform="translate(-961.141 -320.488)"/></g><path class="c" d="M.376,2.282a.375.375,0,0,1-.1-.735A8.314,8.314,0,0,0,1.1,1a.389.389,0,0,1,.525.1.376.376,0,0,1-.1.525,5.558,5.558,0,0,1-1.05.652A.428.428,0,0,1,.376,2.282Z" transform="translate(0 -0.235)"/><path class="c" d="M12.652,2.415a.443.443,0,0,1-.1-.015,4.823,4.823,0,0,1-1.042-.66.378.378,0,0,1,.427-.622,9.777,9.777,0,0,0,.87.57.34.34,0,0,1,.232.45A.379.379,0,0,1,12.652,2.415Z" transform="translate(-2.835 -0.263)"/><path class="c" d="M10.737,3.867a.351.351,0,0,1-.21-.067,8.791,8.791,0,0,1-.847-.915.37.37,0,0,1,.037-.525.379.379,0,0,1,.532.037c.585.682.727.8.727.81a.375.375,0,0,1,.052.517A.358.358,0,0,1,10.737,3.867Z" transform="translate(-2.397 -0.568)"/><path class="c" d="M2.015,3.76a.375.375,0,0,1-.262-.645h0a6.04,6.04,0,0,0,.7-1.057.379.379,0,0,1,.517-.135.37.37,0,0,1,.135.51,6.122,6.122,0,0,1-.832,1.215A.352.352,0,0,1,2.015,3.76Z" transform="translate(-0.409 -0.469)"/><path class="c" d="M8.307,4.717a.38.38,0,0,1-.375-.367c0,.015-.045-.172-.382-.945a.374.374,0,0,1,.195-.495.38.38,0,0,1,.495.195,3.916,3.916,0,0,1,.442,1.23.378.378,0,0,1-.375.382Z" transform="translate(-1.879 -0.721)"/><path class="c" d="M4.635,4.52h0a.4.4,0,0,1-.375-.4A3.916,3.916,0,0,1,4.7,2.885a.376.376,0,0,1,.69.3,6.1,6.1,0,0,0-.382.982A.362.362,0,0,1,4.635,4.52Z" transform="translate(-1.065 -0.666)"/></g></g></svg>